# xmcd CD database file
#
# Track frame offsets:
#	150
#	15407
#	30369
#	44833
#
# Disc length: 799 seconds
#
# Revision: 2
# Processed by: cddbd v1.5.2PL0 Copyright (c) Steve Scherf et al.
# Submitted via: CDex 1.79
#
DISCID=26031d04
DTITLE=Road Crew - Hot Dance Disco Hits Vol.4
DYEAR=1997
DGENRE=Hip-Hop
TTITLE0=Daddy Cool
TTITLE1=Ring Ring
TTITLE2=Staying Alive
TTITLE3=Upside Down
EXTD=YEAR: 1997
EXTT0=
EXTT1=
EXTT2=
EXTT3=
PLAYORDER=
